<?xml version="1.0" encoding="UTF-8" standalone="no"?>
<!-- Created with Inkscape (http://www.inkscape.org/) -->

<svg
   version="1.1"
   id="svg2"
   width="576.21106"
   height="169.30853"
   viewBox="0 0 576.21106 169.30853"
   sodipodi:docname="FrontISTR_logo.svg"
   inkscape:version="1.2.2 (b0a84865, 2022-12-01)"
   xmlns:inkscape="http://www.inkscape.org/namespaces/inkscape"
   xmlns:sodipodi="http://sodipodi.sourceforge.net/DTD/sodipodi-0.dtd"
   xmlns="http://www.w3.org/2000/svg"
   xmlns:svg="http://www.w3.org/2000/svg">
  <defs
     id="defs6">
    <clipPath
       clipPathUnits="userSpaceOnUse"
       id="clipPath16">
      <path
         d="M 0,841.89 H 595.275 V 0 H 0 Z"
         id="path14" />
    </clipPath>
    <clipPath
       clipPathUnits="userSpaceOnUse"
       id="clipPath32">
      <path
         d="M 0,841.89 H 595.275 V 0 H 0 Z"
         id="path30" />
    </clipPath>
  </defs>
  <sodipodi:namedview
     id="namedview4"
     pagecolor="#ffffff"
     bordercolor="#000000"
     borderopacity="0.25"
     inkscape:showpageshadow="2"
     inkscape:pageopacity="0.0"
     inkscape:pagecheckerboard="0"
     inkscape:deskcolor="#d1d1d1"
     showgrid="false"
     inkscape:zoom="1.5457688"
     inkscape:cx="287.23571"
     inkscape:cy="46.578764"
     inkscape:window-width="1440"
     inkscape:window-height="774"
     inkscape:window-x="0"
     inkscape:window-y="25"
     inkscape:window-maximized="0"
     inkscape:current-layer="g8" />
  <g
     id="g8"
     inkscape:groupmode="layer"
     inkscape:label="FrontISTR_logo"
     transform="matrix(1.3333333,0,0,-1.3333333,-113.3336,787.85411)">
    <g
       id="g10">
      <g
         id="g12"
         clip-path="url(#clipPath16)">
        <g
           id="g18"
           transform="translate(517.1582,570.7666)">
          <path
             d="m 0,0 c 0,11.114 -9.011,20.124 -20.124,20.124 h -391.91 c -11.114,0 -20.124,-9.01 -20.124,-20.124 V -49.876 H 0 Z"
             style="fill:#275296;fill-opacity:1;fill-rule:nonzero;stroke:none"
             id="path20" />
        </g>
        <g
           id="g22"
           transform="translate(85.0005,484.0332)">
          <path
             d="m 0,0 c 0,-11.114 9.01,-20.124 20.124,-20.124 h 391.91 c 11.113,0 20.124,9.01 20.124,20.124 V 76.857 H 0 Z"
             style="fill:#275296;fill-opacity:1;fill-rule:nonzero;stroke:none"
             id="path24" />
        </g>
      </g>
    </g>
    <g
       id="g26">
      <g
         id="g28"
         clip-path="url(#clipPath32)">
        <g
           id="g34"
           transform="translate(479.9365,553.4131)">
          <path
             d="m 0,0 -0.107,0.116 0.86,1.386 z M 8.357,-7.298 1.413,-0.545 5.663,8.007 5.745,8.172 5.659,8.335 5.633,8.385 5.465,8.702 5.147,8.536 l -8.466,-4.43 -6.909,6.742 -0.187,0.184 -0.231,-0.123 -0.05,-0.027 -0.231,-0.121 0.044,-0.256 1.602,-9.519 -8.468,-4.43 -0.321,-0.168 0.171,-0.321 0.026,-0.049 0.086,-0.16 0.18,-0.026 9.447,-1.385 1.589,-9.556 0.083,-0.497 0.443,0.239 0.049,0.027 0.1,0.054 0.051,0.102 4.3,8.642 9.55,-1.396 0.114,-0.017 0.104,0.054 0.049,0.026 0.443,0.23 z m -289.836,4.762 129.104,1.63 v 0.439 h -124.332 c 3.862,1.635 7.756,3.194 11.681,4.679 l 131.45,1.632 v 0.437 l -125.829,0.001 c 4.658,1.666 9.356,3.228 14.092,4.681 l 131.335,1.631 v 0.439 l -124.304,-10e-4 c 6.213,1.755 12.488,3.325 18.816,4.71 l 127.087,1.602 v 0.439 l -117.004,-0.001 c 13.427,2.497 27.074,4.171 40.876,4.968 52.06,3.011 104.205,-6.621 152.849,-23.679 l 2.457,1.14 c 0.133,0.216 0.265,0.439 0.395,0.667 l -0.463,2.984 c -48.622,16.98 -100.287,26.221 -152.269,23.48 -41.445,-2.186 -81.726,-12.622 -118.612,-29.809 h -0.327 L -284.5,-0.63 c -9.219,-4.308 -18.228,-9.032 -26.985,-14.162 -1.359,-0.795 -2.054,-4.104 -2.732,-4.501 6.025,3.529 12.162,6.854 18.395,9.985 l 119.049,1.651 v 0.439 h -114.81 c 3.341,1.618 6.709,3.18 10.104,4.682"
             style="fill:#ffffff;fill-opacity:1;fill-rule:nonzero;stroke:none"
             id="path36" />
        </g>
        <g
           id="g38"
           transform="translate(334.8594,547.3462)">
          <path
             d="m 0,0 h -22 c -0.553,0 -1,-0.448 -1,-1 v -5.75 c 0,-0.552 0.447,-1 1,-1 h 6.25 V -51 H -22 c -0.553,0 -1,-0.448 -1,-1 v -5.75 c 0,-0.552 0.447,-1 1,-1 H 0 c 0.553,0 1,0.448 1,1 V -52 c 0,0.552 -0.447,1 -1,1 H -6.25 V -7.75 H 0 c 0.553,0 1,0.448 1,1 V -1 C 1,-0.448 0.553,0 0,0"
             style="fill:#ffffff;fill-opacity:1;fill-rule:nonzero;stroke:none"
             id="path40" />
        </g>
        <g
           id="g42"
           transform="translate(367.9893,521.1753)">
          <path
             d="m 0,0 c -1.557,0.467 -3.509,0.98 -5.809,1.526 -2.251,0.534 -4.212,1.027 -5.829,1.466 -2.192,0.607 -3.877,1.562 -5.002,2.837 -1.089,1.234 -1.642,2.959 -1.642,5.125 0,2.375 0.927,4.239 2.833,5.701 1.96,1.504 4.601,2.266 7.852,2.266 2.932,0 5.772,-0.589 8.441,-1.751 C 3.535,15.998 5.767,14.614 7.476,13.057 7.66,12.889 7.9,12.796 8.149,12.796 h 0.569 c 0.553,0 1,0.448 1,1 v 8.986 c 0,0.384 -0.22,0.734 -0.566,0.901 -2.463,1.187 -5.175,2.117 -8.063,2.764 -2.885,0.646 -5.983,0.974 -9.207,0.974 -5.772,0 -10.596,-1.66 -14.34,-4.933 -3.781,-3.306 -5.699,-7.463 -5.699,-12.356 0,-2.335 0.348,-4.43 1.037,-6.229 0.688,-1.806 1.673,-3.402 2.924,-4.741 1.266,-1.356 2.741,-2.468 4.383,-3.306 1.605,-0.818 3.44,-1.5 5.454,-2.026 2.125,-0.548 3.963,-1.001 5.468,-1.347 1.426,-0.327 3.022,-0.746 4.741,-1.245 2.207,-0.631 3.816,-1.584 4.787,-2.835 0.966,-1.245 1.456,-2.907 1.456,-4.941 0,-2.57 -0.924,-4.58 -2.823,-6.144 -1.932,-1.59 -4.884,-2.397 -8.777,-2.397 -2.767,0 -5.691,0.624 -8.69,1.855 -3.007,1.232 -5.738,2.997 -8.116,5.246 -0.187,0.176 -0.432,0.274 -0.688,0.274 h -0.531 c -0.553,0 -1,-0.448 -1,-1 v -9.453 c 0,-0.382 0.217,-0.729 0.558,-0.898 2.565,-1.261 5.347,-2.34 8.271,-3.206 2.954,-0.874 6.572,-1.318 10.755,-1.318 3.552,0 6.57,0.473 8.971,1.406 2.396,0.93 4.579,2.281 6.487,4.016 1.726,1.602 3.081,3.572 4.032,5.862 0.946,2.282 1.426,4.624 1.426,6.962 0,3.746 -0.976,6.957 -2.899,9.544 C 7.148,-3.206 4.097,-1.258 0,0"
             style="fill:#ffffff;fill-opacity:1;fill-rule:nonzero;stroke:none"
             id="path44" />
        </g>
        <g
           id="g46"
           transform="translate(451.9863,520.0186)">
          <path
             d="m 0,0 c -1.65,-0.363 -3.543,-0.547 -5.628,-0.547 h -5.644 v 19.375 h 6.484 c 2.033,0 3.752,-0.141 5.108,-0.418 C 1.612,18.145 2.753,17.688 3.71,17.055 4.782,16.342 5.553,15.452 6.064,14.333 6.587,13.19 6.853,11.852 6.853,10.357 6.853,8.503 6.608,6.875 6.127,5.519 5.657,4.198 4.924,3.047 3.948,2.097 2.865,1.042 1.537,0.336 0,0 M 24.878,-29.791 5.564,-6.086 c 3.21,1.404 5.829,3.422 7.792,6.015 2.238,2.955 3.372,6.665 3.372,11.028 0,3.131 -0.629,5.808 -1.869,7.957 -1.231,2.133 -2.923,3.899 -5.029,5.25 -2.082,1.358 -4.32,2.241 -6.645,2.618 -2.241,0.362 -5.043,0.546 -8.331,0.546 h -14.626 c -0.553,0 -1,-0.448 -1,-1 v -56.75 c 0,-0.553 0.447,-1 1,-1 h 7.5 c 0.552,0 1,0.447 1,1 v 21.625 h 7.176 l 17.644,-22.247 c 0.189,-0.239 0.477,-0.378 0.783,-0.378 h 9.772 c 0.385,0 0.737,0.222 0.903,0.57 0.166,0.349 0.116,0.762 -0.128,1.061"
             style="fill:#ffffff;fill-opacity:1;fill-rule:nonzero;stroke:none"
             id="path48" />
        </g>
        <g
           id="g50"
           transform="translate(427.4131,547.3462)">
          <path
             d="m 0,0 h -45.5 c -0.553,0 -1,-0.448 -1,-1 v -6.75 c 0,-0.552 0.447,-1 1,-1 h 18 v -49 c 0,-0.552 0.447,-1 1,-1 h 7.5 c 0.553,0 1,0.448 1,1 v 49 H 0 c 0.553,0 1,0.448 1,1 V -1 C 1,-0.448 0.553,0 0,0"
             style="fill:#ffffff;fill-opacity:1;fill-rule:nonzero;stroke:none"
             id="path52" />
        </g>
        <g
           id="g54"
           transform="translate(134.2856,499.6353)">
          <path
             d="m 0,0 c 0,-5.443 0.146,-8.126 0.586,-11.039 h -10.928 c 0.441,2.606 0.587,5.826 0.587,10.886 V 40.25 c 0,4.218 -0.146,6.441 -0.587,9.967 3.008,-0.153 4.841,-0.229 9.315,-0.229 h 20.535 c 4.621,0 6.968,0.154 10.048,0.536 v -10.35 c -2.64,0.384 -5.354,0.536 -10.048,0.536 H 0 V 24.457 h 15.695 c 4.547,0 7.114,0.154 9.974,0.536 V 14.797 c -2.714,0.383 -5.501,0.536 -9.974,0.536 H 0 Z"
             style="fill:#ffffff;fill-opacity:1;fill-rule:nonzero;stroke:none"
             id="path56" />
        </g>
        <g
           id="g58"
           transform="translate(134.2856,499.6353)">
          <path
             d="m 0,0 c 0,-5.443 0.146,-8.126 0.586,-11.039 h -10.928 c 0.441,2.606 0.587,5.826 0.587,10.886 V 40.25 c 0,4.218 -0.146,6.441 -0.587,9.967 3.008,-0.153 4.841,-0.229 9.315,-0.229 h 20.535 c 4.621,0 6.968,0.154 10.048,0.536 v -10.35 c -2.64,0.384 -5.354,0.536 -10.048,0.536 H 0 V 24.457 h 15.695 c 4.547,0 7.114,0.154 9.974,0.536 V 14.797 c -2.714,0.383 -5.501,0.536 -9.974,0.536 H 0 Z"
             style="fill:none;stroke:#ffffff;stroke-width:1;stroke-linecap:round;stroke-linejoin:bevel;stroke-miterlimit:4;stroke-dasharray:none;stroke-opacity:1"
             id="path60" />
        </g>
        <g
           id="g62"
           transform="translate(190.3828,519.6919)">
          <path
             d="m 0,0 c -2.789,0.832 -4.184,1.11 -5.91,1.11 -3.319,0 -5.843,-1.11 -7.701,-3.401 -1.66,-2.013 -2.325,-3.609 -2.723,-6.941 v -12.84 c 0,-3.749 0.133,-5.762 0.465,-9.024 h -9.495 c 0.331,3.401 0.464,5.413 0.464,9.024 v 21.794 c 0,4.234 -0.067,6.177 -0.464,9.023 h 9.03 V 2.221 c 2.391,4.927 6.508,7.289 12.483,7.289 1.593,0 3.187,-0.21 6.175,-0.765 z"
             style="fill:#ffffff;fill-opacity:1;fill-rule:nonzero;stroke:none"
             id="path64" />
        </g>
        <g
           id="g66"
           transform="translate(190.3828,519.6919)">
          <path
             d="m 0,0 c -2.789,0.832 -4.184,1.11 -5.91,1.11 -3.319,0 -5.843,-1.11 -7.701,-3.401 -1.66,-2.013 -2.325,-3.609 -2.723,-6.941 v -12.84 c 0,-3.749 0.133,-5.762 0.465,-9.024 h -9.495 c 0.331,3.401 0.464,5.413 0.464,9.024 v 21.794 c 0,4.234 -0.067,6.177 -0.464,9.023 h 9.03 V 2.221 c 2.391,4.927 6.508,7.289 12.483,7.289 1.593,0 3.187,-0.21 6.175,-0.765 z"
             style="fill:none;stroke:#ffffff;stroke-width:1;stroke-linecap:round;stroke-linejoin:bevel;stroke-miterlimit:4;stroke-dasharray:none;stroke-opacity:1"
             id="path68" />
        </g>
        <g
           id="g70"
           transform="translate(201.5273,509.7671)">
          <path
             d="m 0,0 c 0,-8.538 4.249,-13.813 11.154,-13.813 6.907,0 11.156,5.207 11.156,13.674 0,8.953 -4.05,14.091 -11.089,14.091 C 4.249,13.952 0,8.677 0,0 m -8.566,0 c 0,12.91 7.703,21.17 19.787,21.17 12.017,0 19.654,-8.191 19.654,-21.03 0,-12.842 -7.769,-21.311 -19.588,-21.311 -12.15,0 -19.853,8.192 -19.853,21.171"
             style="fill:#ffffff;fill-opacity:1;fill-rule:nonzero;stroke:none"
             id="path72" />
        </g>
        <g
           id="g74"
           transform="translate(201.5273,509.7671)">
          <path
             d="m 0,0 c 0,-8.538 4.249,-13.813 11.154,-13.813 6.907,0 11.156,5.207 11.156,13.674 0,8.953 -4.05,14.091 -11.089,14.091 C 4.249,13.952 0,8.677 0,0 Z m -8.566,0 c 0,12.91 7.703,21.17 19.787,21.17 12.017,0 19.654,-8.191 19.654,-21.03 0,-12.842 -7.769,-21.311 -19.588,-21.311 -12.15,0 -19.853,8.192 -19.853,21.171 z"
             style="fill:none;stroke:#ffffff;stroke-width:1;stroke-linecap:round;stroke-linejoin:bevel;stroke-miterlimit:4;stroke-dasharray:none;stroke-opacity:1"
             id="path76" />
        </g>
        <g
           id="g78"
           transform="translate(236.043,488.5962)">
          <path
             d="m 0,0 c 0.398,2.984 0.531,5.135 0.531,9.023 v 21.794 c 0,3.818 -0.133,6.178 -0.531,9.024 h 9.031 v -3.679 c 0,-1.041 0,-1.249 -0.133,-2.984 4.051,5.414 7.57,7.357 13.545,7.357 5.114,0 8.899,-1.736 11.289,-5.137 1.593,-2.291 2.258,-5.066 2.258,-9.716 V 9.023 C 35.99,5.205 36.122,2.567 36.52,0 h -9.627 c 0.332,3.122 0.464,5.482 0.464,9.023 v 15.409 c 0,2.915 -0.332,4.789 -1.128,6.107 -1.063,1.806 -3.055,2.846 -5.579,2.846 -4.78,0 -8.697,-3.471 -11.619,-10.342 V 9.023 C 9.031,5.621 9.164,2.984 9.563,0 Z"
             style="fill:#ffffff;fill-opacity:1;fill-rule:nonzero;stroke:none"
             id="path80" />
        </g>
        <g
           id="g82"
           transform="translate(236.043,488.5962)">
          <path
             d="m 0,0 c 0.398,2.984 0.531,5.135 0.531,9.023 v 21.794 c 0,3.818 -0.133,6.178 -0.531,9.024 h 9.031 v -3.679 c 0,-1.041 0,-1.249 -0.133,-2.984 4.051,5.414 7.57,7.357 13.545,7.357 5.114,0 8.899,-1.736 11.289,-5.137 1.593,-2.291 2.258,-5.066 2.258,-9.716 V 9.023 C 35.99,5.205 36.122,2.567 36.52,0 h -9.627 c 0.332,3.122 0.464,5.482 0.464,9.023 v 15.409 c 0,2.915 -0.332,4.789 -1.128,6.107 -1.063,1.806 -3.055,2.846 -5.579,2.846 -4.78,0 -8.697,-3.471 -11.619,-10.342 V 9.023 C 9.031,5.621 9.164,2.984 9.563,0 Z"
             style="fill:none;stroke:#ffffff;stroke-width:1;stroke-linecap:round;stroke-linejoin:bevel;stroke-miterlimit:4;stroke-dasharray:none;stroke-opacity:1"
             id="path84" />
        </g>
        <g
           id="g86"
           transform="translate(292.6758,540.0986)">
          <path
             d="m 0,0 c -0.266,-2.429 -0.465,-5.414 -0.465,-8.538 v -2.151 h 2.789 c 3.121,0 4.581,0.069 6.705,0.416 v -8.19 c -2.19,0.347 -3.451,0.418 -6.506,0.418 h -2.988 v -21.518 c 0,-3.402 1.195,-4.65 4.383,-4.65 1.726,0 2.788,0.345 4.847,1.525 l 1.194,-7.357 c -2.855,-1.11 -4.847,-1.457 -8.299,-1.457 -7.637,0 -10.691,2.845 -10.691,10.132 v 23.325 h -2.523 c -2.457,0 -3.717,-0.071 -5.909,-0.418 v 8.19 c 1.926,-0.347 3.188,-0.416 5.976,-0.416 h 2.456 v 2.151 c 0,2.985 -0.199,6.04 -0.464,8.538 z"
             style="fill:#ffffff;fill-opacity:1;fill-rule:nonzero;stroke:none"
             id="path88" />
        </g>
        <g
           id="g90"
           transform="translate(292.6758,540.0986)">
          <path
             d="m 0,0 c -0.266,-2.429 -0.465,-5.414 -0.465,-8.538 v -2.151 h 2.789 c 3.121,0 4.581,0.069 6.705,0.416 v -8.19 c -2.19,0.347 -3.451,0.418 -6.506,0.418 h -2.988 v -21.518 c 0,-3.402 1.195,-4.65 4.383,-4.65 1.726,0 2.788,0.345 4.847,1.525 l 1.194,-7.357 c -2.855,-1.11 -4.847,-1.457 -8.299,-1.457 -7.637,0 -10.691,2.845 -10.691,10.132 v 23.325 h -2.523 c -2.457,0 -3.717,-0.071 -5.909,-0.418 v 8.19 c 1.926,-0.347 3.188,-0.416 5.976,-0.416 h 2.456 v 2.151 c 0,2.985 -0.199,6.04 -0.464,8.538 z"
             style="fill:none;stroke:#ffffff;stroke-width:1;stroke-linecap:round;stroke-linejoin:bevel;stroke-miterlimit:4;stroke-dasharray:none;stroke-opacity:1"
             id="path92" />
        </g>
        <g
           id="g94"
           transform="translate(129.5479,473.7144)">
          <path
             d="M 0,0 C -0.333,0.046 -0.656,0.065 -1.313,0.065 H -4.05 c -0.518,0 -0.842,-0.009 -1.174,-0.028 0.055,0.342 0.074,0.684 0.074,1.221 v 4.799 c 0,0.638 -0.019,0.971 -0.074,1.368 h 1.396 C -3.883,7.046 -3.902,6.741 -3.902,6.066 V 1.184 h 2.589 c 0.629,0 0.925,0.018 1.313,0.065 z"
             style="fill:#ffffff;fill-opacity:1;fill-rule:nonzero;stroke:none"
             id="path96" />
        </g>
        <g
           id="g98"
           transform="translate(133.7017,476.3037)">
          <path
             d="m 0,0 c -1.766,-0.037 -2.459,-0.342 -2.459,-1.063 0,-0.435 0.323,-0.703 0.841,-0.703 0.49,0 0.971,0.184 1.285,0.49 C -0.111,-1.054 0,-0.786 0,-0.462 Z m 0,-1.923 c -0.37,-0.352 -0.601,-0.481 -0.98,-0.583 -0.268,-0.074 -0.564,-0.111 -0.86,-0.111 -1.128,0 -1.812,0.582 -1.812,1.554 0,0.647 0.406,1.23 1.045,1.498 C -2.006,0.684 -1.322,0.776 0,0.804 V 1.276 C 0,1.812 -0.36,2.09 -1.063,2.09 -1.433,2.09 -1.812,1.988 -2.025,1.821 -2.201,1.692 -2.284,1.563 -2.395,1.229 l -1.183,0.213 c 0.212,0.537 0.379,0.777 0.73,1.027 0.453,0.333 0.971,0.471 1.766,0.471 0.888,0 1.424,-0.157 1.822,-0.545 C 1.054,2.099 1.174,1.748 1.174,1.119 v -2.488 c 0,-0.49 0.019,-0.739 0.075,-1.155 H 0 Z"
             style="fill:#ffffff;fill-opacity:1;fill-rule:nonzero;stroke:none"
             id="path100" />
        </g>
        <g
           id="g102"
           transform="translate(139.603,477.9219)">
          <path
             d="M 0,0 C -0.388,0.111 -0.583,0.148 -0.823,0.148 -1.285,0.148 -1.637,0 -1.896,-0.305 -2.127,-0.573 -2.219,-0.786 -2.274,-1.23 v -1.71 c 0,-0.5 0.018,-0.768 0.064,-1.203 h -1.322 c 0.046,0.454 0.065,0.722 0.065,1.203 v 2.903 c 0,0.564 -0.01,0.823 -0.065,1.202 h 1.258 V 0.296 c 0.332,0.656 0.905,0.971 1.738,0.971 0.222,0 0.444,-0.028 0.86,-0.102 z"
             style="fill:#ffffff;fill-opacity:1;fill-rule:nonzero;stroke:none"
             id="path104" />
        </g>
        <g
           id="g106"
           transform="translate(142.0181,475.231)">
          <path
             d="m 0,0 c 0.231,-0.25 0.628,-0.416 0.98,-0.416 0.508,0 1.026,0.296 1.285,0.73 0.176,0.287 0.259,0.629 0.259,1.055 0,0.591 -0.185,1.054 -0.555,1.368 C 1.71,2.95 1.405,3.07 1.072,3.07 0.148,3.07 -0.426,2.376 -0.426,1.276 -0.426,0.73 -0.278,0.277 0,0 m -0.601,-1.665 c 0.36,-0.499 0.767,-0.702 1.433,-0.702 0.712,0 1.257,0.249 1.517,0.693 0.157,0.278 0.221,0.601 0.24,1.23 -0.463,-0.582 -1.008,-0.841 -1.813,-0.841 -1.47,0 -2.413,1.008 -2.413,2.589 0,1.599 0.971,2.635 2.469,2.635 0.823,0 1.369,-0.25 1.766,-0.814 C 2.58,3.311 2.58,3.329 2.58,3.431 V 3.856 H 3.819 C 3.772,3.458 3.754,3.199 3.754,2.7 v -3.097 c 0,-1.11 -0.24,-1.822 -0.777,-2.275 -0.462,-0.379 -1.229,-0.592 -2.182,-0.592 -1.082,0 -1.692,0.249 -2.321,0.962 z"
             style="fill:#ffffff;fill-opacity:1;fill-rule:nonzero;stroke:none"
             id="path108" />
        </g>
        <g
           id="g110"
           transform="translate(150.7769,477.0435)">
          <path
             d="M 0,0 C -0.065,0.407 -0.176,0.656 -0.407,0.888 -0.657,1.137 -0.971,1.257 -1.406,1.257 -2.127,1.257 -2.654,0.776 -2.793,0 Z m -2.82,-0.916 c 0.046,-0.508 0.129,-0.767 0.341,-1.035 0.269,-0.333 0.685,-0.518 1.157,-0.518 0.453,0 0.841,0.166 1.109,0.462 0.111,0.13 0.176,0.232 0.268,0.481 L 1.146,-1.877 C 0.934,-2.321 0.813,-2.497 0.583,-2.728 0.102,-3.2 -0.546,-3.44 -1.322,-3.44 c -1.637,0 -2.673,1.091 -2.673,2.82 0,1.711 1.027,2.83 2.608,2.83 1.082,0 1.932,-0.537 2.302,-1.461 0.176,-0.444 0.241,-0.777 0.269,-1.406 0,-0.018 0,-0.046 0.018,-0.259 z"
             style="fill:#ffffff;fill-opacity:1;fill-rule:nonzero;stroke:none"
             id="path112" />
        </g>
        <g
           id="g114"
           transform="translate(152.6372,477.2007)">
          <path
             d="m 0,0 c 0.268,-0.037 0.499,-0.056 0.869,-0.056 h 1.433 c 0.38,0 0.611,0.019 0.879,0.056 V -1.23 C 2.875,-1.184 2.682,-1.174 2.302,-1.174 H 0.869 C 0.508,-1.174 0.305,-1.184 0,-1.23 Z"
             style="fill:#ffffff;fill-opacity:1;fill-rule:nonzero;stroke:none"
             id="path116" />
        </g>
        <g
           id="g118"
           transform="translate(157.7427,475.4434)">
          <path
             d="m 0,0 c 0.157,-0.628 0.5,-0.878 1.221,-0.878 0.684,0 1.109,0.268 1.109,0.703 0,0.184 -0.092,0.36 -0.24,0.462 -0.176,0.12 -0.231,0.13 -0.971,0.296 -0.73,0.157 -1.017,0.25 -1.331,0.397 -0.528,0.25 -0.814,0.694 -0.814,1.23 0,0.324 0.101,0.629 0.286,0.86 0.38,0.481 1.008,0.722 1.85,0.722 0.758,0 1.359,-0.186 1.738,-0.537 0.24,-0.231 0.37,-0.462 0.5,-0.915 L 2.127,2.183 C 2.025,2.691 1.711,2.913 1.11,2.913 0.536,2.913 0.148,2.654 0.148,2.266 0.148,2.09 0.25,1.933 0.435,1.831 0.638,1.729 0.832,1.674 1.359,1.554 2.303,1.35 2.682,1.221 2.987,0.99 3.348,0.731 3.523,0.352 3.523,-0.157 3.523,-0.536 3.348,-0.943 3.07,-1.202 2.645,-1.6 1.998,-1.803 1.156,-1.803 c -0.952,0 -1.664,0.287 -2.062,0.823 -0.167,0.222 -0.25,0.407 -0.361,0.823 z"
             style="fill:#ffffff;fill-opacity:1;fill-rule:nonzero;stroke:none"
             id="path120" />
        </g>
        <g
           id="g122"
           transform="translate(165.8818,477.3115)">
          <path
             d="m 0,0 c -0.102,0.287 -0.167,0.416 -0.287,0.564 -0.221,0.277 -0.545,0.425 -0.952,0.425 -0.906,0 -1.47,-0.712 -1.47,-1.858 0,-1.156 0.573,-1.868 1.507,-1.868 0.462,0 0.832,0.185 1.063,0.518 0.084,0.129 0.13,0.231 0.185,0.462 l 1.147,-0.231 c -0.13,-0.37 -0.222,-0.564 -0.388,-0.786 -0.444,-0.61 -1.156,-0.934 -2.035,-0.934 -1.627,0 -2.681,1.101 -2.681,2.811 0,0.869 0.277,1.618 0.786,2.136 0.453,0.462 1.1,0.703 1.858,0.703 0.907,0 1.628,-0.352 2.072,-0.999 C 0.925,0.758 0.999,0.61 1.128,0.268 Z"
             style="fill:#ffffff;fill-opacity:1;fill-rule:nonzero;stroke:none"
             id="path124" />
        </g>
        <g
           id="g126"
           transform="translate(171.4873,476.3037)">
          <path
             d="m 0,0 c -1.766,-0.037 -2.459,-0.342 -2.459,-1.063 0,-0.435 0.323,-0.703 0.841,-0.703 0.49,0 0.971,0.184 1.285,0.49 C -0.111,-1.054 0,-0.786 0,-0.462 Z m 0,-1.923 c -0.37,-0.352 -0.601,-0.481 -0.98,-0.583 -0.268,-0.074 -0.564,-0.111 -0.86,-0.111 -1.128,0 -1.812,0.582 -1.812,1.554 0,0.647 0.406,1.23 1.045,1.498 C -2.006,0.684 -1.322,0.776 0,0.804 V 1.276 C 0,1.812 -0.36,2.09 -1.063,2.09 -1.433,2.09 -1.812,1.988 -2.025,1.821 -2.201,1.692 -2.284,1.563 -2.395,1.229 l -1.183,0.213 c 0.212,0.537 0.379,0.777 0.73,1.027 0.453,0.333 0.971,0.471 1.766,0.471 0.888,0 1.424,-0.157 1.822,-0.545 C 1.054,2.099 1.174,1.748 1.174,1.119 v -2.488 c 0,-0.49 0.019,-0.739 0.075,-1.155 H 0 Z"
             style="fill:#ffffff;fill-opacity:1;fill-rule:nonzero;stroke:none"
             id="path128" />
        </g>
        <g
           id="g130"
           transform="translate(175.1787,481.1396)">
          <path
             d="m 0,0 c -0.046,-0.361 -0.065,-0.657 -0.065,-1.211 v -4.947 c 0,-0.49 0.019,-0.796 0.065,-1.202 h -1.341 c 0.047,0.397 0.065,0.665 0.065,1.202 v 4.956 c 0,0.555 -0.018,0.85 -0.065,1.202 z"
             style="fill:#ffffff;fill-opacity:1;fill-rule:nonzero;stroke:none"
             id="path132" />
        </g>
        <g
           id="g134"
           transform="translate(180.1177,477.0435)">
          <path
             d="M 0,0 C -0.065,0.407 -0.176,0.656 -0.407,0.888 -0.657,1.137 -0.971,1.257 -1.406,1.257 -2.127,1.257 -2.654,0.776 -2.793,0 Z m -2.82,-0.916 c 0.046,-0.508 0.129,-0.767 0.341,-1.035 0.269,-0.333 0.685,-0.518 1.157,-0.518 0.453,0 0.841,0.166 1.109,0.462 0.111,0.13 0.176,0.232 0.268,0.481 L 1.146,-1.877 C 0.934,-2.321 0.813,-2.497 0.583,-2.728 0.102,-3.2 -0.546,-3.44 -1.322,-3.44 c -1.637,0 -2.673,1.091 -2.673,2.82 0,1.711 1.027,2.83 2.608,2.83 1.082,0 1.932,-0.537 2.302,-1.461 0.176,-0.444 0.241,-0.777 0.269,-1.406 0,-0.018 0,-0.046 0.018,-0.259 z"
             style="fill:#ffffff;fill-opacity:1;fill-rule:nonzero;stroke:none"
             id="path136" />
        </g>
        <g
           id="g138"
           transform="translate(188.4609,477.5889)">
          <path
             d="m 0,0 c 0.851,0 1.313,0.453 1.313,1.267 0,0.37 -0.102,0.675 -0.305,0.887 C 0.795,2.386 0.49,2.487 0,2.487 H -1.766 V 0 Z m -3.061,-3.81 c 0.056,0.37 0.074,0.694 0.074,1.193 v 5.003 c 0,0.444 -0.018,0.777 -0.074,1.193 0.398,-0.019 0.685,-0.028 1.175,-0.028 h 1.932 c 0.897,0 1.526,-0.213 1.97,-0.657 C 2.395,2.524 2.589,1.97 2.589,1.304 2.589,0.601 2.376,0.028 1.97,-0.397 1.517,-0.851 0.888,-1.063 0,-1.063 h -1.766 v -1.544 c 0,-0.5 0.018,-0.851 0.074,-1.203 z"
             style="fill:#ffffff;fill-opacity:1;fill-rule:nonzero;stroke:none"
             id="path140" />
        </g>
        <g
           id="g142"
           transform="translate(195.4072,476.3037)">
          <path
             d="m 0,0 c -1.766,-0.037 -2.459,-0.342 -2.459,-1.063 0,-0.435 0.323,-0.703 0.841,-0.703 0.49,0 0.971,0.184 1.285,0.49 C -0.111,-1.054 0,-0.786 0,-0.462 Z m 0,-1.923 c -0.37,-0.352 -0.601,-0.481 -0.98,-0.583 -0.268,-0.074 -0.564,-0.111 -0.86,-0.111 -1.128,0 -1.812,0.582 -1.812,1.554 0,0.647 0.406,1.23 1.045,1.498 C -2.006,0.684 -1.322,0.776 0,0.804 V 1.276 C 0,1.812 -0.36,2.09 -1.063,2.09 -1.433,2.09 -1.812,1.988 -2.025,1.821 -2.201,1.692 -2.284,1.563 -2.395,1.229 l -1.183,0.213 c 0.212,0.537 0.379,0.777 0.73,1.027 0.453,0.333 0.971,0.471 1.766,0.471 0.888,0 1.424,-0.157 1.822,-0.545 C 1.054,2.099 1.174,1.748 1.174,1.119 v -2.488 c 0,-0.49 0.019,-0.739 0.075,-1.155 H 0 Z"
             style="fill:#ffffff;fill-opacity:1;fill-rule:nonzero;stroke:none"
             id="path144" />
        </g>
        <g
           id="g146"
           transform="translate(201.3086,477.9219)">
          <path
             d="M 0,0 C -0.388,0.111 -0.583,0.148 -0.823,0.148 -1.285,0.148 -1.637,0 -1.896,-0.305 -2.126,-0.573 -2.219,-0.786 -2.275,-1.23 v -1.71 c 0,-0.5 0.019,-0.768 0.065,-1.203 h -1.322 c 0.046,0.454 0.065,0.722 0.065,1.203 v 2.903 c 0,0.564 -0.01,0.823 -0.065,1.202 h 1.257 V 0.296 c 0.333,0.656 0.906,0.971 1.739,0.971 0.222,0 0.444,-0.028 0.86,-0.102 z"
             style="fill:#ffffff;fill-opacity:1;fill-rule:nonzero;stroke:none"
             id="path148" />
        </g>
        <g
           id="g150"
           transform="translate(205.8223,476.3037)">
          <path
             d="m 0,0 c -1.766,-0.037 -2.459,-0.342 -2.459,-1.063 0,-0.435 0.323,-0.703 0.841,-0.703 0.49,0 0.971,0.184 1.285,0.49 C -0.111,-1.054 0,-0.786 0,-0.462 Z m 0,-1.923 c -0.37,-0.352 -0.601,-0.481 -0.98,-0.583 -0.268,-0.074 -0.564,-0.111 -0.86,-0.111 -1.128,0 -1.812,0.582 -1.812,1.554 0,0.647 0.406,1.23 1.045,1.498 C -2.006,0.684 -1.322,0.776 0,0.804 V 1.276 C 0,1.812 -0.36,2.09 -1.063,2.09 -1.433,2.09 -1.812,1.988 -2.025,1.821 -2.201,1.692 -2.284,1.563 -2.395,1.229 l -1.183,0.213 c 0.212,0.537 0.379,0.777 0.73,1.027 0.453,0.333 0.971,0.471 1.766,0.471 0.888,0 1.424,-0.157 1.822,-0.545 C 1.054,2.099 1.174,1.748 1.174,1.119 v -2.488 c 0,-0.49 0.019,-0.739 0.075,-1.155 H 0 Z"
             style="fill:#ffffff;fill-opacity:1;fill-rule:nonzero;stroke:none"
             id="path152" />
        </g>
        <g
           id="g154"
           transform="translate(209.5137,481.1396)">
          <path
             d="m 0,0 c -0.046,-0.361 -0.065,-0.657 -0.065,-1.211 v -4.947 c 0,-0.49 0.019,-0.796 0.065,-1.202 h -1.341 c 0.047,0.397 0.065,0.665 0.065,1.202 v 4.956 c 0,0.555 -0.018,0.85 -0.065,1.202 z"
             style="fill:#ffffff;fill-opacity:1;fill-rule:nonzero;stroke:none"
             id="path156" />
        </g>
        <g
           id="g158"
           transform="translate(212.0205,481.1396)">
          <path
             d="m 0,0 c -0.046,-0.361 -0.065,-0.657 -0.065,-1.211 v -4.947 c 0,-0.49 0.019,-0.796 0.065,-1.202 h -1.341 c 0.047,0.397 0.065,0.665 0.065,1.202 v 4.956 c 0,0.555 -0.018,0.85 -0.065,1.202 z"
             style="fill:#ffffff;fill-opacity:1;fill-rule:nonzero;stroke:none"
             id="path160" />
        </g>
        <g
           id="g162"
           transform="translate(216.9595,477.0435)">
          <path
             d="M 0,0 C -0.065,0.407 -0.176,0.656 -0.407,0.888 -0.657,1.137 -0.971,1.257 -1.406,1.257 -2.127,1.257 -2.654,0.776 -2.793,0 Z m -2.82,-0.916 c 0.046,-0.508 0.129,-0.767 0.341,-1.035 0.269,-0.333 0.685,-0.518 1.157,-0.518 0.453,0 0.841,0.166 1.109,0.462 0.111,0.13 0.176,0.232 0.268,0.481 L 1.146,-1.877 C 0.934,-2.321 0.813,-2.497 0.583,-2.728 0.102,-3.2 -0.546,-3.44 -1.322,-3.44 c -1.637,0 -2.673,1.091 -2.673,2.82 0,1.711 1.027,2.83 2.608,2.83 1.082,0 1.932,-0.537 2.302,-1.461 0.176,-0.444 0.241,-0.777 0.269,-1.406 0,-0.018 0,-0.046 0.018,-0.259 z"
             style="fill:#ffffff;fill-opacity:1;fill-rule:nonzero;stroke:none"
             id="path164" />
        </g>
        <g
           id="g166"
           transform="translate(220.4194,481.1396)">
          <path
             d="m 0,0 c -0.046,-0.361 -0.064,-0.657 -0.064,-1.211 v -4.947 c 0,-0.49 0.018,-0.796 0.064,-1.202 h -1.341 c 0.047,0.397 0.065,0.665 0.065,1.202 v 4.956 c 0,0.555 -0.018,0.85 -0.065,1.202 z"
             style="fill:#ffffff;fill-opacity:1;fill-rule:nonzero;stroke:none"
             id="path168" />
        </g>
        <g
           id="g170"
           transform="translate(226.0527,475.1108)">
          <path
             d="m 0,0 c 0,-0.657 0.019,-0.98 0.074,-1.332 h -1.378 c 0.055,0.315 0.074,0.703 0.074,1.313 v 4.873 c 0,0.509 -0.019,0.777 -0.074,1.203 0.379,-0.019 0.61,-0.028 1.175,-0.028 h 2.588 c 0.583,0 0.879,0.018 1.268,0.065 V 4.845 C 3.394,4.892 3.051,4.91 2.459,4.91 H 0 V 2.95 h 1.979 c 0.573,0 0.896,0.018 1.257,0.064 V 1.785 C 2.894,1.831 2.543,1.849 1.979,1.849 H 0 Z"
             style="fill:#ffffff;fill-opacity:1;fill-rule:nonzero;stroke:none"
             id="path172" />
        </g>
        <g
           id="g174"
           transform="translate(231.9727,479.0869)">
          <path
             d="m 0,0 c -0.046,-0.342 -0.065,-0.647 -0.065,-1.211 v -2.885 c 0,-0.509 0.019,-0.823 0.065,-1.212 h -1.35 c 0.056,0.416 0.074,0.74 0.074,1.203 v 2.903 c 0,0.509 -0.018,0.823 -0.074,1.202 z M 0.009,0.878 H -1.35 v 1.174 h 1.359 z"
             style="fill:#ffffff;fill-opacity:1;fill-rule:nonzero;stroke:none"
             id="path176" />
        </g>
        <g
           id="g178"
           transform="translate(233.1294,473.7793)">
          <path
             d="M 0,0 C 0.056,0.397 0.074,0.684 0.074,1.202 V 4.105 C 0.074,4.614 0.056,4.928 0,5.308 H 1.258 V 4.817 c 0,-0.138 0,-0.166 -0.019,-0.397 C 1.803,5.141 2.293,5.4 3.125,5.4 3.837,5.4 4.365,5.169 4.697,4.716 4.919,4.411 5.012,4.041 5.012,3.421 V 1.202 C 5.012,0.693 5.03,0.342 5.086,0 H 3.745 C 3.791,0.416 3.81,0.73 3.81,1.202 V 3.255 C 3.81,3.643 3.764,3.893 3.652,4.068 3.504,4.309 3.227,4.448 2.876,4.448 2.21,4.448 1.665,3.985 1.258,3.07 V 1.202 C 1.258,0.749 1.276,0.397 1.332,0 Z"
             style="fill:#ffffff;fill-opacity:1;fill-rule:nonzero;stroke:none"
             id="path180" />
        </g>
        <g
           id="g182"
           transform="translate(240.7046,479.0869)">
          <path
             d="m 0,0 c -0.046,-0.342 -0.065,-0.647 -0.065,-1.211 v -2.885 c 0,-0.509 0.019,-0.823 0.065,-1.212 h -1.35 c 0.056,0.416 0.074,0.74 0.074,1.203 v 2.903 c 0,0.509 -0.018,0.823 -0.074,1.202 z M 0.009,0.878 H -1.35 v 1.174 h 1.359 z"
             style="fill:#ffffff;fill-opacity:1;fill-rule:nonzero;stroke:none"
             id="path184" />
        </g>
        <g
           id="g186"
           transform="translate(243.8032,480.5107)">
          <path
             d="m 0,0 c -0.037,-0.324 -0.065,-0.721 -0.065,-1.137 v -0.287 h 0.389 c 0.434,0 0.638,0.009 0.934,0.056 v -1.091 c -0.305,0.046 -0.481,0.055 -0.906,0.055 h -0.417 v -2.867 c 0,-0.453 0.167,-0.619 0.61,-0.619 0.241,0 0.389,0.046 0.676,0.203 l 0.166,-0.98 C 0.989,-6.815 0.712,-6.861 0.231,-6.861 c -1.063,0 -1.489,0.379 -1.489,1.35 v 3.107 h -0.351 c -0.342,0 -0.518,-0.009 -0.823,-0.055 v 1.091 c 0.268,-0.047 0.444,-0.056 0.832,-0.056 h 0.342 v 0.287 c 0,0.397 -0.027,0.804 -0.064,1.137 z"
             style="fill:#ffffff;fill-opacity:1;fill-rule:nonzero;stroke:none"
             id="path188" />
        </g>
        <g
           id="g190"
           transform="translate(249.6484,477.0435)">
          <path
             d="M 0,0 C -0.065,0.407 -0.176,0.656 -0.407,0.888 -0.657,1.137 -0.971,1.257 -1.406,1.257 -2.127,1.257 -2.654,0.776 -2.792,0 Z m -2.82,-0.916 c 0.046,-0.508 0.129,-0.767 0.341,-1.035 0.269,-0.333 0.685,-0.518 1.157,-0.518 0.452,0 0.841,0.166 1.109,0.462 0.111,0.13 0.176,0.232 0.268,0.481 L 1.146,-1.877 C 0.934,-2.321 0.813,-2.497 0.583,-2.728 0.102,-3.2 -0.546,-3.44 -1.322,-3.44 c -1.637,0 -2.673,1.091 -2.673,2.82 0,1.711 1.027,2.83 2.608,2.83 1.082,0 1.932,-0.537 2.302,-1.461 0.176,-0.444 0.241,-0.777 0.269,-1.406 0,-0.018 0,-0.046 0.018,-0.259 z"
             style="fill:#ffffff;fill-opacity:1;fill-rule:nonzero;stroke:none"
             id="path192" />
        </g>
        <g
           id="g194"
           transform="translate(260.1831,473.7144)">
          <path
             d="m 0,0 c -0.333,0.046 -0.629,0.065 -1.193,0.065 h -2.885 c -0.555,0 -0.804,-0.009 -1.174,-0.028 0.055,0.37 0.074,0.675 0.074,1.221 V 6.26 c 0,0.481 -0.019,0.759 -0.074,1.193 0.37,-0.018 0.61,-0.028 1.174,-0.028 h 2.793 c 0.462,0 0.767,0.019 1.193,0.065 V 6.27 C -0.444,6.316 -0.74,6.334 -1.285,6.334 H -3.948 V 4.429 h 2.247 c 0.48,0 0.795,0.019 1.201,0.065 V 3.283 C -0.878,3.338 -1.128,3.348 -1.701,3.348 H -3.958 V 1.165 h 2.774 c 0.518,0 0.787,0.019 1.184,0.065 z"
             style="fill:#ffffff;fill-opacity:1;fill-rule:nonzero;stroke:none"
             id="path196" />
        </g>
        <g
           id="g198"
           transform="translate(262.5249,481.1396)">
          <path
             d="m 0,0 c -0.046,-0.361 -0.064,-0.657 -0.064,-1.211 v -4.947 c 0,-0.49 0.018,-0.796 0.064,-1.202 h -1.341 c 0.047,0.397 0.065,0.665 0.065,1.202 v 4.956 c 0,0.555 -0.018,0.85 -0.065,1.202 z"
             style="fill:#ffffff;fill-opacity:1;fill-rule:nonzero;stroke:none"
             id="path200" />
        </g>
        <g
           id="g202"
           transform="translate(267.4639,477.0435)">
          <path
             d="M 0,0 C -0.065,0.407 -0.176,0.656 -0.407,0.888 -0.657,1.137 -0.971,1.257 -1.406,1.257 -2.127,1.257 -2.654,0.776 -2.792,0 Z m -2.82,-0.916 c 0.046,-0.508 0.129,-0.767 0.341,-1.035 0.269,-0.333 0.685,-0.518 1.157,-0.518 0.452,0 0.841,0.166 1.109,0.462 0.111,0.13 0.176,0.232 0.268,0.481 L 1.146,-1.877 C 0.934,-2.321 0.813,-2.497 0.583,-2.728 0.102,-3.2 -0.546,-3.44 -1.322,-3.44 c -1.637,0 -2.673,1.091 -2.673,2.82 0,1.711 1.027,2.83 2.608,2.83 1.082,0 1.932,-0.537 2.302,-1.461 0.176,-0.444 0.241,-0.777 0.269,-1.406 0,-0.018 0,-0.046 0.018,-0.259 z"
             style="fill:#ffffff;fill-opacity:1;fill-rule:nonzero;stroke:none"
             id="path204" />
        </g>
        <g
           id="g206"
           transform="translate(269.583,473.7793)">
          <path
             d="M 0,0 C 0.046,0.397 0.065,0.703 0.065,1.202 V 4.105 C 0.065,4.688 0.046,4.956 0,5.308 H 1.239 V 4.836 c 0,-0.056 0,-0.194 -0.009,-0.342 0.268,0.564 0.952,0.924 1.72,0.924 0.499,0 0.906,-0.138 1.193,-0.416 0.166,-0.148 0.24,-0.268 0.351,-0.554 0.315,0.416 0.49,0.582 0.777,0.73 0.305,0.167 0.619,0.24 1.035,0.24 0.592,0 1.073,-0.185 1.387,-0.526 C 7.999,4.559 8.128,4.143 8.128,3.486 V 1.202 C 8.128,0.684 8.146,0.379 8.202,0 H 6.852 C 6.907,0.379 6.926,0.656 6.926,1.202 V 3.273 C 6.926,4.087 6.639,4.457 6.02,4.457 5.714,4.457 5.483,4.374 5.262,4.18 4.938,3.902 4.79,3.606 4.679,3.033 V 1.202 C 4.679,0.693 4.697,0.379 4.744,0 H 3.412 C 3.468,0.388 3.486,0.675 3.486,1.202 V 3.273 C 3.486,4.05 3.19,4.438 2.589,4.438 2.201,4.438 1.886,4.281 1.637,3.958 1.433,3.689 1.341,3.477 1.239,3.033 V 1.202 C 1.239,0.703 1.258,0.425 1.304,0 Z"
             style="fill:#ffffff;fill-opacity:1;fill-rule:nonzero;stroke:none"
             id="path208" />
        </g>
        <g
           id="g210"
           transform="translate(282.6982,477.0435)">
          <path
             d="M 0,0 C -0.065,0.407 -0.176,0.656 -0.407,0.888 -0.657,1.137 -0.971,1.257 -1.406,1.257 -2.127,1.257 -2.654,0.776 -2.792,0 Z m -2.82,-0.916 c 0.046,-0.508 0.129,-0.767 0.341,-1.035 0.269,-0.333 0.685,-0.518 1.157,-0.518 0.452,0 0.841,0.166 1.109,0.462 0.111,0.13 0.176,0.232 0.268,0.481 L 1.146,-1.877 C 0.934,-2.321 0.813,-2.497 0.583,-2.728 0.102,-3.2 -0.546,-3.44 -1.322,-3.44 c -1.637,0 -2.673,1.091 -2.673,2.82 0,1.711 1.027,2.83 2.608,2.83 1.082,0 1.932,-0.537 2.302,-1.461 0.176,-0.444 0.241,-0.777 0.269,-1.406 0,-0.018 0,-0.046 0.018,-0.259 z"
             style="fill:#ffffff;fill-opacity:1;fill-rule:nonzero;stroke:none"
             id="path212" />
        </g>
        <g
           id="g214"
           transform="translate(284.8174,473.7793)">
          <path
             d="M 0,0 C 0.056,0.397 0.074,0.684 0.074,1.202 V 4.105 C 0.074,4.614 0.056,4.928 0,5.308 H 1.258 V 4.817 c 0,-0.138 0,-0.166 -0.019,-0.397 C 1.803,5.141 2.293,5.4 3.125,5.4 3.837,5.4 4.365,5.169 4.698,4.716 4.919,4.411 5.012,4.041 5.012,3.421 V 1.202 C 5.012,0.693 5.031,0.342 5.085,0 H 3.745 C 3.792,0.416 3.81,0.73 3.81,1.202 V 3.255 C 3.81,3.643 3.764,3.893 3.652,4.068 3.504,4.309 3.227,4.448 2.876,4.448 2.21,4.448 1.665,3.985 1.258,3.07 V 1.202 C 1.258,0.749 1.276,0.397 1.332,0 Z"
             style="fill:#ffffff;fill-opacity:1;fill-rule:nonzero;stroke:none"
             id="path216" />
        </g>
        <g
           id="g218"
           transform="translate(292.9849,480.5107)">
          <path
             d="m 0,0 c -0.037,-0.324 -0.065,-0.721 -0.065,-1.137 v -0.287 h 0.388 c 0.435,0 0.638,0.009 0.934,0.056 v -1.091 c -0.305,0.046 -0.481,0.055 -0.906,0.055 h -0.416 v -2.867 c 0,-0.453 0.167,-0.619 0.61,-0.619 0.24,0 0.389,0.046 0.675,0.203 l 0.167,-0.98 C 0.989,-6.815 0.712,-6.861 0.23,-6.861 c -1.063,0 -1.488,0.379 -1.488,1.35 v 3.107 h -0.351 c -0.342,0 -0.518,-0.009 -0.824,-0.055 v 1.091 c 0.269,-0.047 0.445,-0.056 0.832,-0.056 h 0.343 v 0.287 c 0,0.397 -0.028,0.804 -0.065,1.137 z"
             style="fill:#ffffff;fill-opacity:1;fill-rule:nonzero;stroke:none"
             id="path220" />
        </g>
        <g
           id="g222"
           transform="translate(301.4668,479.5586)">
          <path
             d="M 0,0 C -0.037,0.102 -0.064,0.212 -0.168,0.518 -0.314,0.083 -0.314,0.083 -0.344,0 l -0.961,-2.737 h 2.293 z m 1.951,-5.779 c -0.056,0.305 -0.158,0.702 -0.26,0.97 l -0.369,1.008 h -2.959 l -0.371,-1.008 c -0.166,-0.443 -0.203,-0.582 -0.277,-0.97 h -1.516 c 0.138,0.249 0.324,0.665 0.49,1.091 l 2.034,5.335 c 0.175,0.462 0.25,0.694 0.297,0.934 H 0.629 C 0.674,1.359 0.73,1.211 0.943,0.647 L 2.996,-4.688 C 3.227,-5.28 3.338,-5.539 3.467,-5.779 Z"
             style="fill:#ffffff;fill-opacity:1;fill-rule:nonzero;stroke:none"
             id="path224" />
        </g>
        <g
           id="g226"
           transform="translate(305.6113,473.7793)">
          <path
             d="M 0,0 C 0.055,0.397 0.074,0.684 0.074,1.202 V 4.105 C 0.074,4.614 0.055,4.928 0,5.308 H 1.258 V 4.817 c 0,-0.138 0,-0.166 -0.02,-0.397 C 1.803,5.141 2.293,5.4 3.125,5.4 3.838,5.4 4.363,5.169 4.697,4.716 4.918,4.411 5.012,4.041 5.012,3.421 V 1.202 C 5.012,0.693 5.029,0.342 5.086,0 H 3.744 C 3.791,0.416 3.809,0.73 3.809,1.202 V 3.255 C 3.809,3.643 3.764,3.893 3.652,4.068 3.504,4.309 3.227,4.448 2.875,4.448 2.209,4.448 1.664,3.985 1.258,3.07 V 1.202 C 1.258,0.749 1.275,0.397 1.332,0 Z"
             style="fill:#ffffff;fill-opacity:1;fill-rule:nonzero;stroke:none"
             id="path228" />
        </g>
        <g
           id="g230"
           transform="translate(315.3496,476.3037)">
          <path
             d="m 0,0 c -1.766,-0.037 -2.459,-0.342 -2.459,-1.063 0,-0.435 0.324,-0.703 0.842,-0.703 0.49,0 0.971,0.184 1.285,0.49 C -0.109,-1.054 0,-0.786 0,-0.462 Z m 0,-1.923 c -0.369,-0.352 -0.6,-0.481 -0.98,-0.583 -0.268,-0.074 -0.563,-0.111 -0.86,-0.111 -1.127,0 -1.812,0.582 -1.812,1.554 0,0.647 0.408,1.23 1.045,1.498 C -2.006,0.684 -1.322,0.776 0,0.804 V 1.276 C 0,1.812 -0.359,2.09 -1.063,2.09 -1.432,2.09 -1.813,1.988 -2.023,1.821 -2.199,1.692 -2.283,1.563 -2.395,1.229 l -1.183,0.213 c 0.213,0.537 0.379,0.777 0.73,1.027 0.453,0.333 0.971,0.471 1.766,0.471 0.889,0 1.426,-0.157 1.822,-0.545 C 1.055,2.099 1.176,1.748 1.176,1.119 v -2.488 c 0,-0.49 0.017,-0.739 0.072,-1.155 H 0 Z"
             style="fill:#ffffff;fill-opacity:1;fill-rule:nonzero;stroke:none"
             id="path232" />
        </g>
        <g
           id="g234"
           transform="translate(319.041,481.1396)">
          <path
             d="m 0,0 c -0.045,-0.361 -0.064,-0.657 -0.064,-1.211 v -4.947 c 0,-0.49 0.019,-0.796 0.064,-1.202 h -1.34 c 0.045,0.397 0.065,0.665 0.065,1.202 v 4.956 c 0,0.555 -0.02,0.85 -0.065,1.202 z"
             style="fill:#ffffff;fill-opacity:1;fill-rule:nonzero;stroke:none"
             id="path236" />
        </g>
        <g
           id="g238"
           transform="translate(320.2441,477.9404)">
          <path
             d="M 0,0 C -0.406,0.915 -0.416,0.943 -0.527,1.146 H 0.879 C 0.926,0.878 1.064,0.444 1.23,0.064 L 2.357,-2.562 3.385,0.055 C 3.607,0.619 3.68,0.851 3.736,1.146 H 5.113 C 5.059,1.026 4.893,0.647 4.615,0 L 2.506,-4.947 C 2.211,-5.65 1.664,-5.974 0.805,-5.974 c -0.278,0 -0.545,0.028 -0.971,0.111 l 0.213,1.054 c 0.258,-0.11 0.433,-0.157 0.646,-0.157 0.325,0 0.592,0.176 0.723,0.463 l 0.314,0.711 z"
             style="fill:#ffffff;fill-opacity:1;fill-rule:nonzero;stroke:none"
             id="path240" />
        </g>
        <g
           id="g242"
           transform="translate(327.0527,475.4434)">
          <path
             d="m 0,0 c 0.156,-0.628 0.498,-0.878 1.219,-0.878 0.685,0 1.111,0.268 1.111,0.703 0,0.184 -0.094,0.36 -0.242,0.462 -0.174,0.12 -0.231,0.13 -0.971,0.296 -0.73,0.157 -1.015,0.25 -1.33,0.397 -0.527,0.25 -0.814,0.694 -0.814,1.23 0,0.324 0.101,0.629 0.287,0.86 0.379,0.481 1.008,0.722 1.849,0.722 0.758,0 1.36,-0.186 1.739,-0.537 C 3.088,3.024 3.217,2.793 3.346,2.34 L 2.125,2.183 C 2.023,2.691 1.709,2.913 1.109,2.913 0.535,2.913 0.146,2.654 0.146,2.266 0.146,2.09 0.248,1.933 0.434,1.831 0.637,1.729 0.832,1.674 1.357,1.554 2.301,1.35 2.68,1.221 2.986,0.99 3.346,0.731 3.521,0.352 3.521,-0.157 3.521,-0.536 3.346,-0.943 3.068,-1.202 2.645,-1.6 1.996,-1.803 1.154,-1.803 c -0.951,0 -1.664,0.287 -2.06,0.823 -0.168,0.222 -0.25,0.407 -0.362,0.823 z"
             style="fill:#ffffff;fill-opacity:1;fill-rule:nonzero;stroke:none"
             id="path244" />
        </g>
        <g
           id="g246"
           transform="translate(332.8516,479.0869)">
          <path
             d="m 0,0 c -0.047,-0.342 -0.064,-0.647 -0.064,-1.211 v -2.885 c 0,-0.509 0.017,-0.823 0.064,-1.212 h -1.35 c 0.055,0.416 0.075,0.74 0.075,1.203 v 2.903 c 0,0.509 -0.02,0.823 -0.075,1.202 z M 0.01,0.878 H -1.349 V 2.052 H 0.01 Z"
             style="fill:#ffffff;fill-opacity:1;fill-rule:nonzero;stroke:none"
             id="path248" />
        </g>
        <g
           id="g250"
           transform="translate(335.0449,475.4434)">
          <path
             d="m 0,0 c 0.156,-0.628 0.498,-0.878 1.219,-0.878 0.685,0 1.111,0.268 1.111,0.703 0,0.184 -0.094,0.36 -0.242,0.462 -0.174,0.12 -0.231,0.13 -0.971,0.296 -0.73,0.157 -1.015,0.25 -1.33,0.397 -0.527,0.25 -0.814,0.694 -0.814,1.23 0,0.324 0.101,0.629 0.287,0.86 0.379,0.481 1.008,0.722 1.849,0.722 0.758,0 1.36,-0.186 1.739,-0.537 C 3.088,3.024 3.217,2.793 3.346,2.34 L 2.125,2.183 C 2.023,2.691 1.709,2.913 1.109,2.913 0.535,2.913 0.146,2.654 0.146,2.266 0.146,2.09 0.248,1.933 0.434,1.831 0.637,1.729 0.832,1.674 1.357,1.554 2.301,1.35 2.68,1.221 2.986,0.99 3.346,0.731 3.521,0.352 3.521,-0.157 3.521,-0.536 3.346,-0.943 3.068,-1.202 2.645,-1.6 1.996,-1.803 1.154,-1.803 c -0.951,0 -1.664,0.287 -2.06,0.823 -0.168,0.222 -0.25,0.407 -0.362,0.823 z"
             style="fill:#ffffff;fill-opacity:1;fill-rule:nonzero;stroke:none"
             id="path252" />
        </g>
        <g
           id="g254"
           transform="translate(348.0293,477.478)">
          <path
             d="m 0,0 c 0,0.934 -0.26,1.683 -0.73,2.154 -0.379,0.37 -0.87,0.564 -1.424,0.564 -1.332,0 -2.174,-1.053 -2.174,-2.727 0,-0.925 0.269,-1.702 0.75,-2.182 0.379,-0.371 0.869,-0.565 1.433,-0.565 C -0.822,-2.756 0,-1.702 0,0 M 0.26,2.885 C 0.934,2.21 1.295,1.202 1.295,0 c 0,-2.339 -1.359,-3.856 -3.459,-3.856 -2.098,0 -3.449,1.507 -3.449,3.856 0,1.193 0.371,2.219 1.054,2.885 0.639,0.629 1.407,0.925 2.385,0.925 1.018,0 1.805,-0.296 2.434,-0.925"
             style="fill:#ffffff;fill-opacity:1;fill-rule:nonzero;stroke:none"
             id="path256" />
        </g>
        <g
           id="g258"
           transform="translate(353.2109,478.2271)">
          <path
             d="m 0,0 c -0.916,0 -1.609,-0.758 -1.609,-1.748 0,-1.054 0.683,-1.794 1.646,-1.794 0.906,0 1.471,0.685 1.471,1.776 C 1.508,-0.675 0.934,0 0,0 m -1.656,0.407 c 0,-0.102 0,-0.204 -0.008,-0.324 0.508,0.647 1.053,0.906 1.887,0.906 0.738,0 1.33,-0.222 1.756,-0.647 0.49,-0.499 0.73,-1.193 0.73,-2.127 0,-1.701 -0.934,-2.728 -2.506,-2.728 -0.814,0 -1.424,0.287 -1.867,0.888 0,-0.111 0,-0.111 0.008,-0.296 0.01,-0.064 0.01,-0.231 0.01,-0.397 v -0.703 c 0,-0.546 0.019,-0.842 0.064,-1.23 h -1.303 c 0.045,0.435 0.065,0.749 0.065,1.221 v 4.651 c 0,0.536 -0.02,0.841 -0.065,1.239 h 1.229 z"
             style="fill:#ffffff;fill-opacity:1;fill-rule:nonzero;stroke:none"
             id="path260" />
        </g>
        <g
           id="g262"
           transform="translate(360.6465,477.0435)">
          <path
             d="M 0,0 C -0.064,0.407 -0.176,0.656 -0.406,0.888 -0.656,1.137 -0.971,1.257 -1.404,1.257 -2.127,1.257 -2.652,0.776 -2.791,0 Z m -2.82,-0.916 c 0.047,-0.508 0.131,-0.767 0.343,-1.035 0.268,-0.333 0.684,-0.518 1.155,-0.518 0.453,0 0.842,0.166 1.111,0.462 0.109,0.13 0.174,0.232 0.268,0.481 L 1.146,-1.877 C 0.936,-2.321 0.814,-2.497 0.584,-2.728 0.102,-3.2 -0.545,-3.44 -1.322,-3.44 c -1.637,0 -2.672,1.091 -2.672,2.82 0,1.711 1.027,2.83 2.607,2.83 1.082,0 1.934,-0.537 2.303,-1.461 0.176,-0.444 0.24,-0.777 0.268,-1.406 0,-0.018 0,-0.046 0.019,-0.259 z"
             style="fill:#ffffff;fill-opacity:1;fill-rule:nonzero;stroke:none"
             id="path264" />
        </g>
        <g
           id="g266"
           transform="translate(362.7676,473.7793)">
          <path
             d="M 0,0 C 0.055,0.397 0.074,0.684 0.074,1.202 V 4.105 C 0.074,4.614 0.055,4.928 0,5.308 H 1.258 V 4.817 c 0,-0.138 0,-0.166 -0.02,-0.397 C 1.803,5.141 2.293,5.4 3.125,5.4 3.838,5.4 4.363,5.169 4.697,4.716 4.918,4.411 5.012,4.041 5.012,3.421 V 1.202 C 5.012,0.693 5.029,0.342 5.086,0 H 3.744 C 3.791,0.416 3.809,0.73 3.809,1.202 V 3.255 C 3.809,3.643 3.764,3.893 3.652,4.068 3.504,4.309 3.227,4.448 2.875,4.448 2.209,4.448 1.664,3.985 1.258,3.07 V 1.202 C 1.258,0.749 1.275,0.397 1.332,0 Z"
             style="fill:#ffffff;fill-opacity:1;fill-rule:nonzero;stroke:none"
             id="path268" />
        </g>
        <g
           id="g270"
           transform="translate(373.248,476.0723)">
          <path
             d="m 0,0 c 0.035,-0.416 0.092,-0.601 0.258,-0.813 0.267,-0.352 0.75,-0.546 1.349,-0.546 0.926,0 1.481,0.416 1.481,1.109 0,0.379 -0.176,0.694 -0.463,0.851 -0.277,0.148 -0.332,0.157 -1.609,0.453 -0.694,0.157 -1.063,0.305 -1.397,0.564 -0.471,0.37 -0.711,0.879 -0.711,1.498 0,1.285 1.035,2.118 2.625,2.118 C 2.588,5.234 3.383,4.91 3.836,4.3 4.068,3.995 4.178,3.717 4.289,3.227 L 2.967,3.07 C 2.912,3.384 2.848,3.542 2.689,3.727 2.449,4.013 2.043,4.17 1.533,4.17 0.73,4.17 0.184,3.764 0.184,3.163 0.184,2.774 0.387,2.506 0.813,2.321 1.016,2.238 1.09,2.219 2.117,1.988 2.848,1.831 3.291,1.655 3.623,1.424 4.15,1.036 4.391,0.527 4.391,-0.167 4.391,-0.823 4.188,-1.359 3.809,-1.738 3.318,-2.21 2.588,-2.441 1.6,-2.441 c -0.76,0 -1.498,0.185 -1.944,0.481 -0.369,0.25 -0.636,0.601 -0.812,1.054 -0.084,0.213 -0.121,0.388 -0.176,0.767 z"
             style="fill:#ffffff;fill-opacity:1;fill-rule:nonzero;stroke:none"
             id="path272" />
        </g>
        <g
           id="g274"
           transform="translate(379.6563,476.4238)">
          <path
             d="m 0,0 c 0,-1.137 0.592,-1.84 1.555,-1.84 0.961,0 1.552,0.694 1.552,1.821 0,1.193 -0.564,1.877 -1.544,1.877 C 0.592,1.858 0,1.156 0,0 m -1.191,0 c 0,1.72 1.072,2.82 2.754,2.82 1.673,0 2.738,-1.091 2.738,-2.801 0,-1.711 -1.082,-2.839 -2.729,-2.839 -1.691,0 -2.763,1.091 -2.763,2.82"
             style="fill:#ffffff;fill-opacity:1;fill-rule:nonzero;stroke:none"
             id="path276" />
        </g>
        <g
           id="g278"
           transform="translate(385.2813,478.1157)">
          <path
             d="M 0,0 C -0.352,0 -0.592,-0.018 -0.879,-0.055 V 1.027 C -0.619,0.99 -0.342,0.971 -0.01,0.971 h 0.379 v 0.49 c 0,1.147 0.582,1.683 1.84,1.683 0.416,0 0.723,-0.046 1.146,-0.185 L 3.107,1.988 C 2.83,2.146 2.598,2.21 2.283,2.21 1.748,2.21 1.563,1.988 1.563,1.35 V 0.971 h 0.433 c 0.371,0 0.658,0.019 1.045,0.056 V -0.055 C 2.719,-0.018 2.469,0 2.016,0 H 1.563 v -3.134 c 0,-0.528 0.017,-0.796 0.064,-1.202 H 0.305 c 0.047,0.434 0.064,0.721 0.064,1.202 V 0 Z"
             style="fill:#ffffff;fill-opacity:1;fill-rule:nonzero;stroke:none"
             id="path280" />
        </g>
        <g
           id="g282"
           transform="translate(391.2363,480.5107)">
          <path
             d="m 0,0 c -0.035,-0.324 -0.064,-0.721 -0.064,-1.137 v -0.287 h 0.388 c 0.436,0 0.639,0.009 0.934,0.056 v -1.091 c -0.305,0.046 -0.481,0.055 -0.906,0.055 h -0.416 v -2.867 c 0,-0.453 0.168,-0.619 0.611,-0.619 0.24,0 0.389,0.046 0.674,0.203 l 0.168,-0.98 C 0.99,-6.815 0.713,-6.861 0.232,-6.861 c -1.064,0 -1.488,0.379 -1.488,1.35 v 3.107 h -0.351 c -0.342,0 -0.518,-0.009 -0.825,-0.055 v 1.091 c 0.27,-0.047 0.446,-0.056 0.832,-0.056 h 0.344 v 0.287 c 0,0.397 -0.029,0.804 -0.066,1.137 z"
             style="fill:#ffffff;fill-opacity:1;fill-rule:nonzero;stroke:none"
             id="path284" />
        </g>
        <g
           id="g286"
           transform="translate(397.7949,473.7793)">
          <path
             d="M 0,0 C -0.037,0.222 -0.121,0.518 -0.23,0.878 L -0.943,3.061 C -0.961,3.098 -1.018,3.301 -1.119,3.68 -1.166,3.514 -1.275,3.135 -1.305,3.042 L -2.016,0.878 C -2.117,0.564 -2.219,0.194 -2.256,0 H -3.328 C -3.385,0.268 -3.422,0.407 -3.57,0.878 l -1.016,3.283 c -0.131,0.425 -0.26,0.804 -0.389,1.147 h 1.37 c 0.017,-0.268 0.101,-0.74 0.203,-1.101 l 0.507,-1.803 c 0.038,-0.12 0.092,-0.379 0.166,-0.74 0.02,0.093 0.176,0.638 0.213,0.749 l 0.666,2.016 c 0.092,0.268 0.204,0.694 0.231,0.879 h 0.99 C -0.602,5.132 -0.48,4.697 -0.398,4.429 L 0.287,2.33 C 0.314,2.247 0.361,2.071 0.416,1.877 0.443,1.757 0.453,1.748 0.471,1.664 0.49,1.738 0.49,1.738 0.518,1.868 0.545,1.997 0.609,2.293 0.629,2.358 L 1.146,4.207 C 1.258,4.605 1.332,5.012 1.35,5.308 H 2.709 C 2.59,5.002 2.57,4.928 2.33,4.161 L 1.303,0.878 C 1.164,0.435 1.119,0.259 1.072,0 Z"
             style="fill:#ffffff;fill-opacity:1;fill-rule:nonzero;stroke:none"
             id="path288" />
        </g>
        <g
           id="g290"
           transform="translate(404.6855,476.3037)">
          <path
             d="m 0,0 c -1.766,-0.037 -2.459,-0.342 -2.459,-1.063 0,-0.435 0.324,-0.703 0.842,-0.703 0.49,0 0.971,0.184 1.285,0.49 C -0.109,-1.054 0,-0.786 0,-0.462 Z m 0,-1.923 c -0.369,-0.352 -0.6,-0.481 -0.98,-0.583 -0.268,-0.074 -0.563,-0.111 -0.86,-0.111 -1.127,0 -1.812,0.582 -1.812,1.554 0,0.647 0.408,1.23 1.045,1.498 C -2.006,0.684 -1.322,0.776 0,0.804 V 1.276 C 0,1.812 -0.359,2.09 -1.063,2.09 -1.432,2.09 -1.813,1.988 -2.023,1.821 -2.199,1.692 -2.283,1.563 -2.395,1.229 l -1.183,0.213 c 0.213,0.537 0.379,0.777 0.73,1.027 0.453,0.333 0.971,0.471 1.766,0.471 0.889,0 1.426,-0.157 1.822,-0.545 C 1.055,2.099 1.176,1.748 1.176,1.119 v -2.488 c 0,-0.49 0.017,-0.739 0.072,-1.155 H 0 Z"
             style="fill:#ffffff;fill-opacity:1;fill-rule:nonzero;stroke:none"
             id="path292" />
        </g>
        <g
           id="g294"
           transform="translate(410.5879,477.9219)">
          <path
             d="M 0,0 C -0.389,0.111 -0.582,0.148 -0.824,0.148 -1.285,0.148 -1.637,0 -1.896,-0.305 -2.127,-0.573 -2.219,-0.786 -2.275,-1.23 v -1.71 c 0,-0.5 0.019,-0.768 0.064,-1.203 h -1.322 c 0.047,0.454 0.064,0.722 0.064,1.203 v 2.903 c 0,0.564 -0.008,0.823 -0.064,1.202 h 1.258 V 0.296 c 0.334,0.656 0.906,0.971 1.738,0.971 0.223,0 0.443,-0.028 0.859,-0.102 z"
             style="fill:#ffffff;fill-opacity:1;fill-rule:nonzero;stroke:none"
             id="path296" />
        </g>
        <g
           id="g298"
           transform="translate(415.3594,477.0435)">
          <path
             d="M 0,0 C -0.064,0.407 -0.176,0.656 -0.406,0.888 -0.656,1.137 -0.971,1.257 -1.404,1.257 -2.127,1.257 -2.652,0.776 -2.791,0 Z m -2.82,-0.916 c 0.047,-0.508 0.131,-0.767 0.343,-1.035 0.268,-0.333 0.684,-0.518 1.155,-0.518 0.453,0 0.842,0.166 1.111,0.462 0.109,0.13 0.174,0.232 0.268,0.481 L 1.146,-1.877 C 0.936,-2.321 0.814,-2.497 0.584,-2.728 0.102,-3.2 -0.545,-3.44 -1.322,-3.44 c -1.637,0 -2.672,1.091 -2.672,2.82 0,1.711 1.027,2.83 2.607,2.83 1.082,0 1.934,-0.537 2.303,-1.461 0.176,-0.444 0.24,-0.777 0.268,-1.406 0,-0.018 0,-0.046 0.019,-0.259 z"
             style="fill:#ffffff;fill-opacity:1;fill-rule:nonzero;stroke:none"
             id="path300" />
        </g>
        <g
           id="g302"
           transform="translate(421.5313,476.4238)">
          <path
             d="m 0,0 c 0,-1.137 0.592,-1.84 1.553,-1.84 0.963,0 1.554,0.694 1.554,1.821 0,1.193 -0.564,1.877 -1.544,1.877 C 0.592,1.858 0,1.156 0,0 m -1.193,0 c 0,1.72 1.072,2.82 2.756,2.82 1.673,0 2.736,-1.091 2.736,-2.801 0,-1.711 -1.082,-2.839 -2.727,-2.839 -1.693,0 -2.765,1.091 -2.765,2.82"
             style="fill:#ffffff;fill-opacity:1;fill-rule:nonzero;stroke:none"
             id="path304" />
        </g>
        <g
           id="g306"
           transform="translate(426.7578,473.7793)">
          <path
             d="M 0,0 C 0.055,0.397 0.074,0.684 0.074,1.202 V 4.105 C 0.074,4.614 0.055,4.928 0,5.308 H 1.258 V 4.817 c 0,-0.138 0,-0.166 -0.02,-0.397 C 1.803,5.141 2.293,5.4 3.125,5.4 3.838,5.4 4.363,5.169 4.697,4.716 4.918,4.411 5.012,4.041 5.012,3.421 V 1.202 C 5.012,0.693 5.029,0.342 5.086,0 H 3.744 C 3.791,0.416 3.809,0.73 3.809,1.202 V 3.255 C 3.809,3.643 3.764,3.893 3.652,4.068 3.504,4.309 3.227,4.448 2.875,4.448 2.209,4.448 1.664,3.985 1.258,3.07 V 1.202 C 1.258,0.749 1.275,0.397 1.332,0 Z"
             style="fill:#ffffff;fill-opacity:1;fill-rule:nonzero;stroke:none"
             id="path308" />
        </g>
        <g
           id="g310"
           transform="translate(442.4707,481.1396)">
          <path
             d="m 0,0 c -0.055,-0.379 -0.074,-0.657 -0.074,-1.184 v -4.983 c 0,-0.537 0.019,-0.805 0.074,-1.193 h -1.377 c 0.055,0.36 0.074,0.647 0.074,1.193 v 2.089 h -3.718 v -2.089 c 0,-0.537 0.019,-0.814 0.074,-1.193 h -1.377 c 0.054,0.351 0.074,0.647 0.074,1.193 v 4.974 c 0,0.546 -0.02,0.832 -0.074,1.193 h 1.377 c -0.055,-0.388 -0.074,-0.693 -0.074,-1.184 v -1.784 h 3.718 v 1.775 c 0,0.527 -0.019,0.86 -0.074,1.193 z"
             style="fill:#ffffff;fill-opacity:1;fill-rule:nonzero;stroke:none"
             id="path312" />
        </g>
        <g
           id="g314"
           transform="translate(449.0391,473.7144)">
          <path
             d="m 0,0 c -0.332,0.046 -0.629,0.065 -1.193,0.065 h -2.885 c -0.555,0 -0.805,-0.009 -1.174,-0.028 0.055,0.37 0.074,0.675 0.074,1.221 V 6.26 c 0,0.481 -0.019,0.759 -0.074,1.193 0.369,-0.018 0.609,-0.028 1.174,-0.028 h 2.793 c 0.463,0 0.767,0.019 1.193,0.065 V 6.27 C -0.443,6.316 -0.74,6.334 -1.285,6.334 H -3.949 V 4.429 h 2.248 c 0.48,0 0.795,0.019 1.201,0.065 V 3.283 C -0.879,3.338 -1.129,3.348 -1.701,3.348 H -3.957 V 1.165 h 2.773 c 0.518,0 0.786,0.019 1.184,0.065 z"
             style="fill:#ffffff;fill-opacity:1;fill-rule:nonzero;stroke:none"
             id="path316" />
        </g>
        <g
           id="g318"
           transform="translate(456.4102,476.0264)">
          <path
             d="m 0,0 c -0.176,-0.666 -0.342,-1.026 -0.619,-1.387 -0.527,-0.648 -1.414,-1.008 -2.524,-1.008 -1.007,0 -1.812,0.305 -2.377,0.888 -0.648,0.674 -1.007,1.719 -1.007,2.903 0,1.221 0.388,2.293 1.082,2.987 0.554,0.564 1.386,0.878 2.31,0.878 0.723,0 1.268,-0.138 1.776,-0.444 0.416,-0.258 0.75,-0.601 0.98,-1.007 0.111,-0.195 0.176,-0.361 0.287,-0.712 L -1.377,2.802 C -1.506,3.208 -1.59,3.384 -1.775,3.597 -2.09,3.976 -2.551,4.17 -3.125,4.17 c -1.313,0 -2.107,-1.026 -2.107,-2.728 0,-1.692 0.812,-2.746 2.107,-2.746 0.646,0 1.203,0.25 1.498,0.684 0.156,0.231 0.231,0.426 0.305,0.851 z"
             style="fill:#ffffff;fill-opacity:1;fill-rule:nonzero;stroke:none"
             id="path320" />
        </g>
        <g
           id="g322"
           transform="translate(457.1152,477.2007)">
          <path
             d="m 0,0 c 0.27,-0.037 0.5,-0.056 0.869,-0.056 h 1.434 c 0.379,0 0.611,0.019 0.879,0.056 v -1.23 c -0.305,0.046 -0.5,0.056 -0.879,0.056 H 0.869 C 0.51,-1.174 0.305,-1.184 0,-1.23 Z"
             style="fill:#ffffff;fill-opacity:1;fill-rule:nonzero;stroke:none"
             id="path324" />
        </g>
        <g
           id="g326"
           transform="translate(464.625,473.7793)">
          <path
             d="M 0,0 C -0.047,0.296 -0.193,0.73 -0.406,1.248 L -1.738,4.42 c -0.176,0.416 -0.26,0.665 -0.473,1.414 0.037,-0.489 0.074,-1.248 0.074,-1.451 V 1.35 c 0,-0.638 0.02,-0.99 0.074,-1.35 h -1.294 c 0.056,0.37 0.074,0.73 0.074,1.35 v 4.642 c 0,0.601 -0.018,0.989 -0.074,1.368 h 1.693 C -1.6,7.037 -1.48,6.648 -1.322,6.26 L 0.555,1.673 2.422,6.26 c 0.185,0.453 0.269,0.749 0.334,1.1 H 4.457 C 4.402,6.917 4.383,6.611 4.383,5.992 V 1.35 C 4.383,0.675 4.402,0.342 4.457,0 H 3.162 C 3.219,0.379 3.236,0.712 3.236,1.35 V 4.42 C 3.273,5.224 3.301,5.696 3.311,5.834 3.189,5.335 3.014,4.817 2.885,4.484 L 1.498,1.229 C 1.313,0.795 1.146,0.277 1.092,0 Z"
             style="fill:#ffffff;fill-opacity:1;fill-rule:nonzero;stroke:none"
             id="path328" />
        </g>
        <g
           id="g330"
           transform="translate(476.1133,473.7793)">
          <path
             d="m 0,0 c -0.037,0.222 -0.131,0.62 -0.223,0.934 l -0.988,3.44 C -1.314,4.734 -1.396,5.085 -1.48,5.557 -1.582,5.03 -1.674,4.669 -1.758,4.374 l -0.98,-3.44 C -2.848,0.518 -2.922,0.222 -2.951,0 H -4.18 C -4.227,0.231 -4.227,0.231 -4.43,0.952 L -5.9,6.26 c -0.157,0.536 -0.25,0.823 -0.37,1.1 h 1.479 c 0.02,-0.314 0.064,-0.591 0.168,-0.998 l 0.859,-3.523 c 0.065,-0.287 0.166,-0.758 0.221,-1.082 0.121,0.573 0.186,0.832 0.26,1.091 l 1.027,3.569 c 0.11,0.389 0.174,0.694 0.203,0.943 h 1.137 C -0.889,7.139 -0.805,6.778 -0.703,6.436 L 0.332,2.875 C 0.396,2.635 0.443,2.45 0.592,1.757 0.637,1.969 0.637,1.969 0.693,2.293 0.721,2.441 0.795,2.802 0.813,2.885 L 1.674,6.371 C 1.766,6.722 1.82,7.102 1.83,7.36 H 3.311 C 3.18,7.046 3.098,6.796 2.949,6.26 L 1.469,0.961 C 1.404,0.703 1.359,0.536 1.34,0.453 1.266,0.194 1.266,0.194 1.238,0 Z"
             style="fill:#ffffff;fill-opacity:1;fill-rule:nonzero;stroke:none"
             id="path332" />
        </g>
      </g>
    </g>
  </g>
</svg>
